<?xml version="1.0" encoding="UTF-8" standalone="no"?>
<svg
   xmlns:dc="http://purl.org/dc/elements/1.1/"
   xmlns:cc="http://creativecommons.org/ns#"
   xmlns:rdf="http://www.w3.org/1999/02/22-rdf-syntax-ns#"
   xmlns:svg="http://www.w3.org/2000/svg"
   xmlns="http://www.w3.org/2000/svg"
   xmlns:sodipodi="http://sodipodi.sourceforge.net/DTD/sodipodi-0.dtd"
   xmlns:inkscape="http://www.inkscape.org/namespaces/inkscape"
   width="48"
   height="48"
   viewBox="0 0 48 48.000001"
   id="svg2"
   version="1.1"
   inkscape:version="1.0.2 (e86c870879, 2021-01-15)"
   sodipodi:docname="15.svg">
  <defs
     id="defs4" />
  <sodipodi:namedview
     id="base"
     pagecolor="#ffffff"
     bordercolor="#666666"
     borderopacity="1.0"
     inkscape:pageopacity="0.0"
     inkscape:pageshadow="2"
     inkscape:zoom="14.130822"
     inkscape:cx="24.452713"
     inkscape:cy="24.411335"
     inkscape:document-units="px"
     inkscape:current-layer="layer1"
     showgrid="false"
     units="px"
     inkscape:window-width="1906"
     inkscape:window-height="1036"
     inkscape:window-x="0"
     inkscape:window-y="0"
     inkscape:window-maximized="1"
     inkscape:document-rotation="0" />
  <metadata
     id="metadata7">
    <rdf:RDF>
      <cc:Work
         rdf:about="">
        <dc:format>image/svg+xml</dc:format>
        <dc:type
           rdf:resource="http://purl.org/dc/dcmitype/StillImage" />
        <dc:title></dc:title>
      </cc:Work>
    </rdf:RDF>
  </metadata>
  <g
     inkscape:label="Layer 1"
     inkscape:groupmode="layer"
     id="layer1"
     transform="translate(0,-1004.3622)">
    <path
       style="color:#000000;font-style:normal;font-variant:normal;font-weight:normal;font-stretch:normal;font-size:medium;line-height:normal;font-family:sans-serif;font-variant-ligatures:normal;font-variant-position:normal;font-variant-caps:normal;font-variant-numeric:normal;font-variant-alternates:normal;font-variant-east-asian:normal;font-feature-settings:normal;font-variation-settings:normal;text-indent:0;text-align:start;text-decoration:none;text-decoration-line:none;text-decoration-style:solid;text-decoration-color:#000000;letter-spacing:normal;word-spacing:normal;text-transform:none;writing-mode:lr-tb;direction:ltr;text-orientation:mixed;dominant-baseline:auto;baseline-shift:baseline;text-anchor:start;white-space:normal;shape-padding:0;shape-margin:0;inline-size:0;clip-rule:nonzero;display:inline;overflow:visible;visibility:visible;isolation:auto;mix-blend-mode:normal;color-interpolation:sRGB;color-interpolation-filters:linearRGB;solid-color:#000000;solid-opacity:1;vector-effect:none;fill:#1a1a1a;fill-opacity:1;fill-rule:nonzero;stroke:none;stroke-width:0.7;stroke-linecap:round;stroke-linejoin:miter;stroke-miterlimit:4;stroke-dasharray:none;stroke-dashoffset:0;stroke-opacity:1;color-rendering:auto;image-rendering:auto;shape-rendering:auto;text-rendering:auto;enable-background:accumulate;stop-color:#000000"
       d="M 5.3647059,1007.2422 H 42.635295 c 1.376527,0 2.484707,1.1082 2.484707,2.4847 v 37.2706 c 0,1.3765 -1.10818,2.4847 -2.484707,2.4847 H 5.3647059 c -1.3765269,0 -2.4847058,-1.1082 -2.4847058,-2.4847 v -37.2706 c 0,-1.3765 1.1081789,-2.4847 2.4847058,-2.4847 z"
       id="path926" />
    <path
       style="opacity:1;fill:#cccccc;fill-opacity:1;stroke:none;stroke-width:1.37073;stroke-linecap:round;stroke-linejoin:miter;stroke-miterlimit:4;stroke-dasharray:none;stroke-opacity:1"
       d="m 24.000002,1011.7907 -4.100234,4.1002 h 8.200466 z m -4.100234,29.0428 4.100234,4.1002 4.100232,-4.1002 z"
       id="rect4142"
       inkscape:connector-curvature="0"
       sodipodi:nodetypes="cccccccc" />
    <path
       id="path928"
       style="color:#000000;font-style:normal;font-variant:normal;font-weight:normal;font-stretch:normal;font-size:medium;line-height:normal;font-family:sans-serif;font-variant-ligatures:normal;font-variant-position:normal;font-variant-caps:normal;font-variant-numeric:normal;font-variant-alternates:normal;font-variant-east-asian:normal;font-feature-settings:normal;font-variation-settings:normal;text-indent:0;text-align:start;text-decoration:none;text-decoration-line:none;text-decoration-style:solid;text-decoration-color:#000000;letter-spacing:normal;word-spacing:normal;text-transform:none;writing-mode:lr-tb;direction:ltr;text-orientation:mixed;dominant-baseline:auto;baseline-shift:baseline;text-anchor:start;white-space:normal;shape-padding:0;shape-margin:0;inline-size:0;clip-rule:nonzero;display:inline;overflow:visible;visibility:visible;isolation:auto;mix-blend-mode:normal;color-interpolation:sRGB;color-interpolation-filters:linearRGB;solid-color:#000000;solid-opacity:1;vector-effect:none;fill:#999999;fill-opacity:1;fill-rule:nonzero;stroke:none;stroke-linecap:round;stroke-linejoin:miter;stroke-miterlimit:4;stroke-dasharray:none;stroke-dashoffset:0;stroke-opacity:1;color-rendering:auto;image-rendering:auto;shape-rendering:auto;text-rendering:auto;enable-background:accumulate;stop-color:#000000"
       d="m 5.365236,1006.8935 c -1.564374,0 -2.835937,1.2695 -2.835937,2.8339 v 37.2696 c 0,0.7631 0.307228,1.4532 0.798828,1.9629 l 0.492187,-0.4903 c -0.363261,-0.3818 -0.589843,-0.8975 -0.589843,-1.4726 v -37.2696 c 0,-1.1887 0.946083,-2.1347 2.134765,-2.1347 h 37.269531 c 0.627683,0 1.183454,0.2673 1.572266,0.6914 l 0.492188,-0.4903 c -0.517676,-0.5515 -1.249271,-0.9003 -2.064454,-0.9003 z" />
    <path
       id="path928-3"
       style="color:#000000;font-style:normal;font-variant:normal;font-weight:normal;font-stretch:normal;font-size:medium;line-height:normal;font-family:sans-serif;font-variant-ligatures:normal;font-variant-position:normal;font-variant-caps:normal;font-variant-numeric:normal;font-variant-alternates:normal;font-variant-east-asian:normal;font-feature-settings:normal;font-variation-settings:normal;text-indent:0;text-align:start;text-decoration:none;text-decoration-line:none;text-decoration-style:solid;text-decoration-color:#000000;letter-spacing:normal;word-spacing:normal;text-transform:none;writing-mode:lr-tb;direction:ltr;text-orientation:mixed;dominant-baseline:auto;baseline-shift:baseline;text-anchor:start;white-space:normal;shape-padding:0;shape-margin:0;inline-size:0;clip-rule:nonzero;display:inline;overflow:visible;visibility:visible;isolation:auto;mix-blend-mode:normal;color-interpolation:sRGB;color-interpolation-filters:linearRGB;solid-color:#000000;solid-opacity:1;vector-effect:none;fill:#808080;fill-opacity:1;fill-rule:nonzero;stroke:none;stroke-linecap:round;stroke-linejoin:miter;stroke-miterlimit:4;stroke-dasharray:none;stroke-dashoffset:0;stroke-opacity:1;color-rendering:auto;image-rendering:auto;shape-rendering:auto;text-rendering:auto;enable-background:accumulate;stop-color:#000000"
       d="m 44.69922,1007.7938 -0.492187,0.4903 c 0.346921,0.3788 0.5625,0.8809 0.5625,1.4414 v 37.2715 c 0,1.1887 -0.946085,2.1347 -2.134766,2.1347 H 5.365236 c -0.612946,0 -1.159397,-0.2535 -1.546875,-0.6601 l -0.492188,0.4883 c 0.516101,0.535 1.237904,0.8711 2.039063,0.8711 h 37.269531 c 1.564373,0 2.835937,-1.2696 2.835937,-2.834 v -37.2715 c 0,-0.7484 -0.29664,-1.4249 -0.771484,-1.9317 z" />
    <g
       aria-label="15"
       id="text968"
       style="font-style:normal;font-weight:normal;font-size:16.5276px;line-height:1.25;font-family:sans-serif;text-align:center;text-anchor:middle;fill:#cccccc;fill-opacity:1;stroke:none;stroke-width:0.413191">
      <path
         d="m 15.566729,1033.0064 h 2.663139 v -9.1919 l -2.897172,0.5811 v -1.4849 l 2.881032,-0.5811 h 1.630163 v 10.6768 h 2.663139 v 1.3719 h -6.940301 z"
         style="text-align:center;text-anchor:middle;stroke-width:0.413191"
         id="path1533" />
      <path
         d="m 25.815778,1022.3296 h 6.399603 v 1.3719 H 27.30875 v 2.9537 q 0.355085,-0.1211 0.71017,-0.1775 0.355085,-0.065 0.71017,-0.065 2.01753,0 3.195767,1.1056 1.178237,1.1056 1.178237,2.994 0,1.9449 -1.210518,3.0263 -1.210517,1.0733 -3.413659,1.0733 -0.758591,0 -1.549463,-0.1291 -0.782801,-0.1291 -1.622093,-0.3874 v -1.6382 q 0.72631,0.3954 1.501042,0.5891 0.774731,0.1937 1.638233,0.1937 1.39613,0 2.211212,-0.7344 0.815082,-0.7344 0.815082,-1.9933 0,-1.2589 -0.815082,-1.9933 -0.815082,-0.7344 -2.211212,-0.7344 -0.653679,0 -1.307359,0.1453 -0.645609,0.1452 -1.323499,0.4519 z"
         style="text-align:center;text-anchor:middle;stroke-width:0.413191"
         id="path1535" />
    </g>
  </g>
</svg>
