<?xml version="1.0" encoding="UTF-8" standalone="no"?>
<svg
   xmlns:dc="http://purl.org/dc/elements/1.1/"
   xmlns:cc="http://creativecommons.org/ns#"
   xmlns:rdf="http://www.w3.org/1999/02/22-rdf-syntax-ns#"
   xmlns:svg="http://www.w3.org/2000/svg"
   xmlns="http://www.w3.org/2000/svg"
   xmlns:sodipodi="http://sodipodi.sourceforge.net/DTD/sodipodi-0.dtd"
   xmlns:inkscape="http://www.inkscape.org/namespaces/inkscape"
   width="48"
   height="48"
   viewBox="0 0 48 48.000001"
   id="svg2"
   version="1.1"
   inkscape:version="1.0.2 (e86c870879, 2021-01-15)"
   sodipodi:docname="3.svg">
  <defs
     id="defs4" />
  <sodipodi:namedview
     id="base"
     pagecolor="#ffffff"
     bordercolor="#666666"
     borderopacity="1.0"
     inkscape:pageopacity="0.0"
     inkscape:pageshadow="2"
     inkscape:zoom="14.130822"
     inkscape:cx="24.452713"
     inkscape:cy="24.411335"
     inkscape:document-units="px"
     inkscape:current-layer="layer1"
     showgrid="false"
     units="px"
     inkscape:window-width="1906"
     inkscape:window-height="1036"
     inkscape:window-x="0"
     inkscape:window-y="0"
     inkscape:window-maximized="1"
     inkscape:document-rotation="0" />
  <metadata
     id="metadata7">
    <rdf:RDF>
      <cc:Work
         rdf:about="">
        <dc:format>image/svg+xml</dc:format>
        <dc:type
           rdf:resource="http://purl.org/dc/dcmitype/StillImage" />
        <dc:title />
      </cc:Work>
    </rdf:RDF>
  </metadata>
  <g
     inkscape:label="Layer 1"
     inkscape:groupmode="layer"
     id="layer1"
     transform="translate(0,-1004.3622)">
    <path
       style="color:#000000;font-style:normal;font-variant:normal;font-weight:normal;font-stretch:normal;font-size:medium;line-height:normal;font-family:sans-serif;font-variant-ligatures:normal;font-variant-position:normal;font-variant-caps:normal;font-variant-numeric:normal;font-variant-alternates:normal;font-variant-east-asian:normal;font-feature-settings:normal;font-variation-settings:normal;text-indent:0;text-align:start;text-decoration:none;text-decoration-line:none;text-decoration-style:solid;text-decoration-color:#000000;letter-spacing:normal;word-spacing:normal;text-transform:none;writing-mode:lr-tb;direction:ltr;text-orientation:mixed;dominant-baseline:auto;baseline-shift:baseline;text-anchor:start;white-space:normal;shape-padding:0;shape-margin:0;inline-size:0;clip-rule:nonzero;display:inline;overflow:visible;visibility:visible;isolation:auto;mix-blend-mode:normal;color-interpolation:sRGB;color-interpolation-filters:linearRGB;solid-color:#000000;solid-opacity:1;vector-effect:none;fill:#1a1a1a;fill-opacity:1;fill-rule:nonzero;stroke:none;stroke-width:0.7;stroke-linecap:round;stroke-linejoin:miter;stroke-miterlimit:4;stroke-dasharray:none;stroke-dashoffset:0;stroke-opacity:1;color-rendering:auto;image-rendering:auto;shape-rendering:auto;text-rendering:auto;enable-background:accumulate;stop-color:#000000"
       d="m 5.364706,1007.2422 h 37.27059 c 1.376527,0 2.484706,1.1082 2.484706,2.4847 v 37.2706 c 0,1.3765 -1.108179,2.4847 -2.484706,2.4847 H 5.364706 c -1.376527,0 -2.4847059,-1.1082 -2.4847059,-2.4847 v -37.2706 c 0,-1.3765 1.1081789,-2.4847 2.4847059,-2.4847 z"
       id="path926" />
    <path
       style="opacity:1;fill:#cccccc;fill-opacity:1;stroke:none;stroke-width:1.37073;stroke-linecap:round;stroke-linejoin:miter;stroke-miterlimit:4;stroke-dasharray:none;stroke-opacity:1"
       d="m 24.000002,1011.7907 -4.100234,4.1002 h 8.200466 z m -4.100234,29.0428 4.100234,4.1002 4.100232,-4.1002 z"
       id="rect4142"
       inkscape:connector-curvature="0"
       sodipodi:nodetypes="cccccccc" />
    <g
       aria-label="3"
       id="text916"
       style="font-style:normal;font-weight:normal;font-size:18.7612px;line-height:1.25;font-family:sans-serif;fill:#cccccc;fill-opacity:1;stroke:none;stroke-width:0.469031"
       transform="matrix(0.88347035,0,0,0.88347035,2.7967117,119.83468)">
      <path
         d="m 25.680997,1027.8171 q 1.328308,0.284 2.070328,1.1818 0.751181,0.8977 0.751181,2.2169 0,2.0245 -1.392433,3.1329 -1.392433,1.1085 -3.957441,1.1085 -0.861109,0 -1.777184,-0.1741 -0.906913,-0.1649 -1.877952,-0.5038 v -1.7863 q 0.769503,0.4488 1.685577,0.6778 0.916074,0.2291 1.914595,0.2291 1.740541,0 2.647454,-0.6871 0.916075,-0.687 0.916075,-1.997 0,-1.2093 -0.851949,-1.8871 -0.842789,-0.6871 -2.354311,-0.6871 h -1.593969 v -1.5207 h 1.667255 q 1.36495,0 2.088649,-0.5405 0.723699,-0.5496 0.723699,-1.5756 0,-1.0535 -0.751181,-1.6123 -0.74202,-0.568 -2.134453,-0.568 -0.760342,0 -1.630612,0.1649 -0.870271,0.1649 -1.914595,0.513 v -1.6489 q 1.053485,-0.2932 1.969559,-0.4397 0.925235,-0.1466 1.740541,-0.1466 2.106971,0 3.33451,0.9619 1.22754,0.9527 1.22754,2.5833 0,1.1359 -0.650413,1.9238 -0.650413,0.7786 -1.85047,1.0809 z"
         style="stroke-width:0.469031"
         id="path921" />
    </g>
    <path
       id="path928"
       style="color:#000000;font-style:normal;font-variant:normal;font-weight:normal;font-stretch:normal;font-size:medium;line-height:normal;font-family:sans-serif;font-variant-ligatures:normal;font-variant-position:normal;font-variant-caps:normal;font-variant-numeric:normal;font-variant-alternates:normal;font-variant-east-asian:normal;font-feature-settings:normal;font-variation-settings:normal;text-indent:0;text-align:start;text-decoration:none;text-decoration-line:none;text-decoration-style:solid;text-decoration-color:#000000;letter-spacing:normal;word-spacing:normal;text-transform:none;writing-mode:lr-tb;direction:ltr;text-orientation:mixed;dominant-baseline:auto;baseline-shift:baseline;text-anchor:start;white-space:normal;shape-padding:0;shape-margin:0;inline-size:0;clip-rule:nonzero;display:inline;overflow:visible;visibility:visible;isolation:auto;mix-blend-mode:normal;color-interpolation:sRGB;color-interpolation-filters:linearRGB;solid-color:#000000;solid-opacity:1;vector-effect:none;fill:#999999;fill-opacity:1;fill-rule:nonzero;stroke:none;stroke-linecap:round;stroke-linejoin:miter;stroke-miterlimit:4;stroke-dasharray:none;stroke-dashoffset:0;stroke-opacity:1;color-rendering:auto;image-rendering:auto;shape-rendering:auto;text-rendering:auto;enable-background:accumulate;stop-color:#000000"
       d="m 5.365236,1006.8935 c -1.564374,0 -2.835937,1.2695 -2.835937,2.8339 v 37.2696 c 0,0.7631 0.307228,1.4532 0.798828,1.9629 l 0.492187,-0.4903 c -0.363261,-0.3818 -0.589843,-0.8975 -0.589843,-1.4726 v -37.2696 c 0,-1.1887 0.946083,-2.1347 2.134765,-2.1347 h 37.269531 c 0.627683,0 1.183454,0.2673 1.572266,0.6914 l 0.492188,-0.4903 c -0.517676,-0.5515 -1.249271,-0.9003 -2.064454,-0.9003 z" />
    <path
       id="path928-3"
       style="color:#000000;font-style:normal;font-variant:normal;font-weight:normal;font-stretch:normal;font-size:medium;line-height:normal;font-family:sans-serif;font-variant-ligatures:normal;font-variant-position:normal;font-variant-caps:normal;font-variant-numeric:normal;font-variant-alternates:normal;font-variant-east-asian:normal;font-feature-settings:normal;font-variation-settings:normal;text-indent:0;text-align:start;text-decoration:none;text-decoration-line:none;text-decoration-style:solid;text-decoration-color:#000000;letter-spacing:normal;word-spacing:normal;text-transform:none;writing-mode:lr-tb;direction:ltr;text-orientation:mixed;dominant-baseline:auto;baseline-shift:baseline;text-anchor:start;white-space:normal;shape-padding:0;shape-margin:0;inline-size:0;clip-rule:nonzero;display:inline;overflow:visible;visibility:visible;isolation:auto;mix-blend-mode:normal;color-interpolation:sRGB;color-interpolation-filters:linearRGB;solid-color:#000000;solid-opacity:1;vector-effect:none;fill:#808080;fill-opacity:1;fill-rule:nonzero;stroke:none;stroke-linecap:round;stroke-linejoin:miter;stroke-miterlimit:4;stroke-dasharray:none;stroke-dashoffset:0;stroke-opacity:1;color-rendering:auto;image-rendering:auto;shape-rendering:auto;text-rendering:auto;enable-background:accumulate;stop-color:#000000"
       d="m 44.69922,1007.7938 -0.492187,0.4903 c 0.346921,0.3788 0.5625,0.8809 0.5625,1.4414 v 37.2715 c 0,1.1887 -0.946085,2.1347 -2.134766,2.1347 H 5.365236 c -0.612946,0 -1.159397,-0.2535 -1.546875,-0.6601 l -0.492188,0.4883 c 0.516101,0.535 1.237904,0.8711 2.039063,0.8711 h 37.269531 c 1.564373,0 2.835937,-1.2696 2.835937,-2.834 v -37.2715 c 0,-0.7484 -0.29664,-1.4249 -0.771484,-1.9317 z" />
  </g>
</svg>
